<svg width="24" height="24" viewBox="0 0 24 24" fill="none" xmlns="http://www.w3.org/2000/svg">
<g id="Icon / aelf">
<circle id="Circle" cx="12" cy="12" r="11.7375" fill="white" stroke="#DEE2E8" stroke-width="0.525"/>
<path id="Shape" fill-rule="evenodd" clip-rule="evenodd" d="M13.0958 7.75153C13.9108 7.75153 14.5715 7.09087 14.5715 6.27591C14.5715 5.46095 13.9108 4.80029 13.0958 4.80029C12.2809 4.80029 11.6202 5.46095 11.6202 6.27591C11.6202 7.09087 12.2809 7.75153 13.0958 7.75153ZM19.7614 12.0004C19.7614 13.6584 18.4173 15.0025 16.7593 15.0025C15.1012 15.0025 13.7571 13.6584 13.7571 12.0004C13.7571 10.3423 15.1012 8.99824 16.7593 8.99824C18.4173 8.99824 19.7614 10.3423 19.7614 12.0004ZM14.5715 17.7247C14.5715 18.5396 13.9108 19.2003 13.0958 19.2003C12.2809 19.2003 11.6202 18.5396 11.6202 17.7247C11.6202 16.9097 12.2809 16.249 13.0958 16.249C13.9108 16.249 14.5715 16.9097 14.5715 17.7247ZM5.53962 7.85319C5.10712 8.99807 5.71772 10.2956 6.86259 10.7281C7.62584 11.008 8.43998 10.8553 9.02514 10.3719C9.55941 9.9903 10.2463 9.86309 10.9078 10.1175C11.3403 10.2702 11.6711 10.55 11.9001 10.9062L11.9255 10.9571C12.0273 11.1097 12.1799 11.2624 12.3834 11.3133C12.8414 11.4914 13.3757 11.2369 13.5283 10.779C13.7064 10.321 13.452 9.78676 12.994 9.63411C12.7905 9.55779 12.587 9.55779 12.3834 9.63411C11.9764 9.76132 11.5184 9.76132 11.0859 9.60867C10.4499 9.37969 10.0174 8.87086 9.83927 8.2857L9.81383 8.23482C9.81383 8.20938 9.81383 8.18394 9.78839 8.18394V8.13305C9.6103 7.42068 9.1269 6.81008 8.3891 6.55567C7.24422 6.09772 5.94669 6.68288 5.53962 7.85319ZM6.86259 13.2723C5.71772 13.7048 5.10712 15.0023 5.53962 16.1472C5.97213 17.3175 7.24422 17.9026 8.3891 17.4447C9.1269 17.1903 9.6103 16.5797 9.78839 15.8673V15.8164C9.81383 15.8164 9.81383 15.791 9.81383 15.7655L9.83927 15.7147C10.0174 15.1295 10.4499 14.6207 11.0859 14.3917C11.5184 14.239 11.9764 14.239 12.3834 14.3663C12.587 14.4426 12.7905 14.4426 12.994 14.3663C13.452 14.2136 13.7064 13.6793 13.5283 13.2214C13.3757 12.7634 12.8414 12.509 12.3834 12.6871C12.1799 12.738 12.0273 12.8906 11.9255 13.0433L11.9001 13.0942C11.6711 13.4504 11.3403 13.7302 10.9078 13.8829C10.2463 14.1373 9.55941 14.0101 9.02514 13.6284C8.43998 13.1451 7.62584 12.9924 6.86259 13.2723Z" fill="#266CD3"/>
</g>
</svg>

