<svg width="24" height="24" viewBox="0 0 24 24" fill="#ACB8B6" xmlns="http://www.w3.org/2000/svg">
<path d="M19 3.99985H17V2.99985C17 2.73466 16.8946 2.48034 16.7071 2.29284C16.5195 2.10534 16.2652 2 16 2C15.7348 2 15.4805 2.10534 15.2929 2.29284C15.1054 2.48034 15 2.73466 15 2.99985V3.99985H9V2.99985C8.99996 2.73466 8.89458 2.48034 8.70705 2.29284C8.51952 2.10534 8.26519 2 8 2C7.73481 2 7.48048 2.10534 7.29295 2.29284C7.10541 2.48034 7.00004 2.73466 7 2.99985V3.99985H5C4.20435 3.99985 3.44129 4.31592 2.87868 4.87853C2.31607 5.44114 2 6.2042 2 6.99985V18.9998C2 19.7955 2.31607 20.5586 2.87868 21.1212C3.44129 21.6838 4.20435 21.9998 5 21.9998H19C19.7956 21.9998 20.5587 21.6838 21.1213 21.1212C21.6839 20.5586 22 19.7955 22 18.9998V6.99985C22 6.2042 21.6839 5.44114 21.1213 4.87853C20.5587 4.31592 19.7956 3.99985 19 3.99985ZM20 18.9998C20 19.2651 19.8946 19.5194 19.7071 19.707C19.5196 19.8945 19.2652 19.9998 19 19.9998H5C4.73478 19.9998 4.48043 19.8945 4.29289 19.707C4.10536 19.5194 4 19.2651 4 18.9998V11.9998H20V18.9998ZM20 9.99985H4V6.99985C4 6.73463 4.10536 6.48028 4.29289 6.29274C4.48043 6.1052 4.73478 5.99985 5 5.99985H7V6.99985C7.00004 7.26504 7.10541 7.51935 7.29295 7.70685C7.48048 7.89436 7.73481 7.99969 8 7.99969C8.26519 7.99969 8.51952 7.89436 8.70705 7.70685C8.89458 7.51935 8.99996 7.26504 9 6.99985V5.99985H15V6.99985C15 7.26504 15.1054 7.51935 15.2929 7.70685C15.4805 7.89436 15.7348 7.99969 16 7.99969C16.2652 7.99969 16.5195 7.89436 16.7071 7.70685C16.8946 7.51935 17 7.26504 17 6.99985V5.99985H19C19.2652 5.99985 19.5196 6.1052 19.7071 6.29274C19.8946 6.48028 20 6.73463 20 6.99985V9.99985Z" />
</svg>
