<svg width="16" height="16" viewBox="0 0 16 16" fill="#1B76E2" xmlns="http://www.w3.org/2000/svg">
<path d="M13.9375 14.5H2.09375C1.78281 14.5 1.53125 14.2484 1.53125 13.9375V2.09375C1.53125 1.78281 1.78281 1.53125 2.09375 1.53125H7.00156C7.3125 1.53125 7.56406 1.78281 7.56406 2.09375C7.56406 2.40469 7.3125 2.65625 7.00156 2.65625H2.65625V13.375H13.375V9.05469C13.375 8.74375 13.6266 8.49219 13.9375 8.49219C14.2484 8.49219 14.5 8.74375 14.5 9.05469V13.9375C14.5 14.2484 14.2484 14.5 13.9375 14.5Z" />
<path d="M14.498 2.05625V2.04844C14.4965 2.02188 14.4918 1.99687 14.4871 1.97187C14.4871 1.97031 14.4871 1.96875 14.4855 1.96719C14.4793 1.94063 14.4715 1.91563 14.4621 1.89062V1.88906C14.4527 1.86406 14.4402 1.84063 14.4277 1.81719C14.4277 1.81563 14.4262 1.81562 14.4262 1.81406C14.4137 1.79219 14.3996 1.77031 14.384 1.75C14.3824 1.74844 14.3809 1.74531 14.3793 1.74375C14.3715 1.73437 14.3652 1.72656 14.3574 1.71719C14.3574 1.71563 14.3559 1.71562 14.3559 1.71406C14.348 1.70469 14.3402 1.69687 14.3309 1.68906L14.3246 1.68281C14.3168 1.675 14.3074 1.66719 14.2996 1.65937L14.298 1.65781C14.2887 1.65 14.2793 1.64219 14.2684 1.63594C14.2668 1.63437 14.2637 1.63281 14.2621 1.63125C14.2402 1.61563 14.2184 1.60313 14.1949 1.59063L14.1934 1.58906C14.1684 1.57656 14.1434 1.56562 14.1168 1.55781C14.0918 1.55 14.0652 1.54219 14.0387 1.53906C14.0371 1.53906 14.0355 1.53906 14.034 1.5375L13.9965 1.53281H13.9918C13.9809 1.53125 13.9715 1.53125 13.9605 1.53125H10.0012C9.69023 1.53125 9.43867 1.78281 9.43867 2.09375C9.43867 2.40469 9.69023 2.65625 10.0012 2.65625H12.5793L7.61836 7.61875C7.39805 7.83906 7.39805 8.19531 7.61836 8.41406C7.72773 8.52344 7.87148 8.57812 8.0168 8.57812C8.16055 8.57812 8.3043 8.52344 8.41523 8.41406L13.3746 3.45312V5.99687C13.3746 6.30781 13.6262 6.55937 13.9371 6.55937C14.248 6.55937 14.4996 6.30781 14.4996 5.99687V2.09531C14.4996 2.08281 14.4996 2.06875 14.498 2.05625Z" />
</svg>
